<svg width="1544" height="79" viewBox="0 0 1544 79" fill="none" xmlns="http://www.w3.org/2000/svg">
<path d="M0 11.75C0 9.41667 0.791667 7.45833 2.375 5.875C4.04167 4.20833 6.04167 3.375 8.375 3.375H81.125C83.4583 3.375 85.4583 4.16667 87.125 5.75C88.7083 7.41667 89.5 9.41667 89.5 11.75C89.5 14.0833 88.6667 16.0833 87 17.75C85.4167 19.3333 83.4583 20.125 81.125 20.125H53.25V70.75C52.75 75.75 50 78.4583 45 78.875C42.6667 78.875 40.625 78.125 38.875 76.625C37.2083 75.0417 36.375 73.0833 36.375 70.75V20.125H8.375C6.04167 20.125 4.08333 19.2917 2.5 17.625C0.833333 16.0417 0 14.0833 0 11.75ZM111.25 1.375C113.5 1.45833 115.417 2.29167 117 3.875C118.583 5.375 119.417 7.25 119.5 9.5V30.375H160.125V9.5C160.208 7.16667 161.083 5.25 162.75 3.75C164.417 2.16667 166.417 1.375 168.75 1.375C171 1.45833 172.917 2.29167 174.5 3.875C176.083 5.375 176.917 7.25 177 9.5V70.75C176.5 75.75 173.75 78.4583 168.75 78.875C166.417 78.875 164.375 78.125 162.625 76.625C160.958 75.0417 160.125 73.0833 160.125 70.75V47.125H119.5V70.75C119 75.75 116.25 78.4583 111.25 78.875C108.917 78.875 106.875 78.125 105.125 76.625C103.458 75.0417 102.625 73.0833 102.625 70.75V9.5C102.708 7.16667 103.583 5.25 105.25 3.75C106.917 2.16667 108.917 1.375 111.25 1.375ZM215.75 3.375H221.5H264C266.333 3.45833 268.25 4.33333 269.75 6C271.333 7.66667 272.125 9.66667 272.125 12C271.708 17 269 19.7083 264 20.125H220C216.833 20.2917 214.208 21.5 212.125 23.75C210.042 26 208.5 28.5833 207.5 31.5C206.583 34.3333 206.125 37.25 206.125 40.25C206.125 43.25 206.583 46.2083 207.5 49.125C208.5 51.9583 210.042 54.5 212.125 56.75C214.208 59 216.833 60.2083 220 60.375H264C266.333 60.4583 268.25 61.3333 269.75 63C271.333 64.6667 272.125 66.6667 272.125 69C272.042 71.25 271.208 73.1667 269.625 74.75C268.125 76.25 266.25 77.0417 264 77.125H218.125H215.75C209.917 76.7917 205.083 74.5833 201.25 70.5C197.5 66.3333 194.792 61.625 193.125 56.375C191.542 51.125 190.75 45.75 190.75 40.25C190.75 34.75 191.583 29.375 193.25 24.125C194.917 18.875 197.625 14.2083 201.375 10.125C205.125 5.95833 209.917 3.70833 215.75 3.375ZM271.875 39.75C271.875 42.0833 271.042 44.0417 269.375 45.625C267.792 47.2917 265.833 48.125 263.5 48.125H225.75C223.417 48.125 221.417 47.3333 219.75 45.75C218.167 44.0833 217.375 42.0833 217.375 39.75C217.375 37.4167 218.167 35.4167 219.75 33.75C221.417 32.1667 223.417 31.375 225.75 31.375H263.5C265.833 31.375 267.792 32.2083 269.375 33.875C271.042 35.4583 271.875 37.4167 271.875 39.75ZM429.5 11.75C429.5 14.0833 428.667 16.0417 427 17.625C425.417 19.2917 423.458 20.125 421.125 20.125H371.125C369.542 20.2083 368.208 20.5833 367.125 21.25C366.125 21.8333 365.375 22.5417 364.875 23.375C364.375 24.125 364.125 24.9167 364.125 25.75C364.125 26.5833 364.375 27.4167 364.875 28.25C365.375 29 366.125 29.7083 367.125 30.375C368.208 30.9583 369.542 31.2917 371.125 31.375H406.625C412.458 31.5417 417.25 32.9167 421 35.5C424.833 38 427.542 40.9167 429.125 44.25C430.792 47.5 431.625 50.8333 431.625 54.25C431.625 57.5833 430.792 60.9167 429.125 64.25C427.458 67.5 424.75 70.4167 421 73C417.25 75.5 412.458 76.75 406.625 76.75H405.875C405.375 76.8333 404.875 76.875 404.375 76.875H357.125C354.792 76.875 352.792 76.0833 351.125 74.5C349.542 72.8333 348.75 70.8333 348.75 68.5C348.75 66.1667 349.583 64.2083 351.25 62.625C352.833 60.9583 354.792 60.125 357.125 60.125H407.375C408.958 60.2083 410.25 59.9167 411.25 59.25C412.333 58.5833 413.125 57.8333 413.625 57C414.125 56.0833 414.375 55.1667 414.375 54.25C414.375 53.6667 414.125 52.875 413.625 51.875C413.125 50.7917 412.333 49.9167 411.25 49.25C410.25 48.5833 408.958 48.2083 407.375 48.125H371.875C366.042 47.9583 361.208 46.625 357.375 44.125C353.625 41.625 350.917 38.7917 349.25 35.625C347.667 32.375 346.875 29.0833 346.875 25.75C346.875 22.5 347.708 19.2917 349.375 16.125C351.042 12.875 353.75 10 357.5 7.5C361.25 5 366.042 3.66667 371.875 3.5H372.625C373.125 3.41667 373.625 3.375 374.125 3.375H421.125C423.458 3.375 425.417 4.20833 427 5.875C428.667 7.45833 429.5 9.41667 429.5 11.75ZM443 68.75C443 66.4167 443.792 64.4583 445.375 62.875C447.042 61.2083 449.042 60.375 451.375 60.375H475.375V20.125H451.375C449.042 20.125 447.083 19.2917 445.5 17.625C443.833 16.0417 443 14.0833 443 11.75C443 9.41667 443.792 7.45833 445.375 5.875C447.042 4.20833 449.042 3.375 451.375 3.375H516.125C518.458 3.375 520.458 4.16667 522.125 5.75C523.708 7.41667 524.5 9.41667 524.5 11.75C524.5 14.0833 523.667 16.0833 522 17.75C520.417 19.3333 518.458 20.125 516.125 20.125H492.25V60.375H516.125C518.458 60.375 520.458 61.1667 522.125 62.75C523.708 64.4167 524.5 66.4167 524.5 68.75C524.5 71.0833 523.667 73.0833 522 74.75C520.417 76.3333 518.458 77.125 516.125 77.125H451.375C449.042 77.125 447.083 76.2917 445.5 74.625C443.833 73.0417 443 71.0833 443 68.75ZM545.75 1.375C548.083 1.375 550.083 2.16667 551.75 3.75C553.417 5.25 554.292 7.16667 554.375 9.5V39.625C554.292 43.0417 554.5 46.2083 555 49.125C555.583 51.9583 556.917 54.5 559 56.75C561.083 59 563.708 60.2083 566.875 60.375H606.875C609.208 60.4583 611.125 61.3333 612.625 63C614.208 64.6667 615 66.6667 615 69C614.917 71.25 614.083 73.1667 612.5 74.75C611 76.25 609.125 77.0417 606.875 77.125H562.625C556.792 76.7917 551.958 74.8333 548.125 71.25C544.375 67.5833 541.667 63.125 540 57.875C538.417 52.625 537.583 47.0417 537.5 41.125V9.5C537.583 7.25 538.417 5.375 540 3.875C541.583 2.29167 543.5 1.45833 545.75 1.375ZM650.125 3.375H655.875H698.375C700.708 3.45833 702.625 4.33333 704.125 6C705.708 7.66667 706.5 9.66667 706.5 12C706.083 17 703.375 19.7083 698.375 20.125H654.375C651.208 20.2917 648.583 21.5 646.5 23.75C644.417 26 642.875 28.5833 641.875 31.5C640.958 34.3333 640.5 37.25 640.5 40.25C640.5 43.25 640.958 46.2083 641.875 49.125C642.875 51.9583 644.417 54.5 646.5 56.75C648.583 59 651.208 60.2083 654.375 60.375H698.375C700.708 60.4583 702.625 61.3333 704.125 63C705.708 64.6667 706.5 66.6667 706.5 69C706.417 71.25 705.583 73.1667 704 74.75C702.5 76.25 700.625 77.0417 698.375 77.125H652.5H650.125C644.292 76.7917 639.458 74.5833 635.625 70.5C631.875 66.3333 629.167 61.625 627.5 56.375C625.917 51.125 625.125 45.75 625.125 40.25C625.125 34.75 625.958 29.375 627.625 24.125C629.292 18.875 632 14.2083 635.75 10.125C639.5 5.95833 644.292 3.70833 650.125 3.375ZM706.25 39.75C706.25 42.0833 705.417 44.0417 703.75 45.625C702.167 47.2917 700.208 48.125 697.875 48.125H660.125C657.792 48.125 655.792 47.3333 654.125 45.75C652.542 44.0833 651.75 42.0833 651.75 39.75C651.75 37.4167 652.542 35.4167 654.125 33.75C655.792 32.1667 657.792 31.375 660.125 31.375H697.875C700.208 31.375 702.167 32.2083 703.75 33.875C705.417 35.4583 706.25 37.4167 706.25 39.75ZM758.875 0C763.208 0 767.458 0.5 771.625 1.5C775.875 2.5 779.917 4 783.75 6C787.583 7.91667 790.958 10.5 793.875 13.75C796.875 17 798.5 20.875 798.75 25.375V30.625V70.5C798.25 75.5 795.5 78.2083 790.5 78.625C788.167 78.625 786.125 77.875 784.375 76.375C782.708 74.7917 781.875 72.8333 781.875 70.5V29.25C781.708 26.6667 780.708 24.5417 778.875 22.875C777.125 21.125 775.125 19.75 772.875 18.75C770.708 17.75 768.417 17 766 16.5C763.667 16 761.292 15.75 758.875 15.75C756.458 15.75 754.042 16 751.625 16.5C749.292 17 747 17.75 744.75 18.75C742.583 19.75 740.583 21.125 738.75 22.875C737 24.5417 736.042 26.6667 735.875 29.25V70.5C735.458 75.5 732.75 78.2083 727.75 78.625C725.417 78.625 723.375 77.875 721.625 76.375C719.958 74.7917 719.125 72.8333 719.125 70.5V30.625V25.375C719.375 20.875 720.958 17 723.875 13.75C726.792 10.5 730.167 7.91667 734 6C737.833 4 741.833 2.5 746 1.5C750.25 0.5 754.542 0 758.875 0ZM812.125 11.75C812.125 9.41667 812.917 7.45833 814.5 5.875C816.167 4.20833 818.167 3.375 820.5 3.375H893.25C895.583 3.375 897.583 4.16667 899.25 5.75C900.833 7.41667 901.625 9.41667 901.625 11.75C901.625 14.0833 900.792 16.0833 899.125 17.75C897.542 19.3333 895.583 20.125 893.25 20.125H865.375V70.75C864.875 75.75 862.125 78.4583 857.125 78.875C854.792 78.875 852.75 78.125 851 76.625C849.333 75.0417 848.5 73.0833 848.5 70.75V20.125H820.5C818.167 20.125 816.208 19.2917 814.625 17.625C812.958 16.0417 812.125 14.0833 812.125 11.75ZM1006.88 57.75C1006.88 55.4167 1007.67 53.4583 1009.25 51.875C1010.92 50.2083 1012.92 49.375 1015.25 49.375H1034.38L1031.12 40.125C1029.79 36.7083 1028.46 33.5 1027.12 30.5C1025.88 27.4167 1024.42 24.625 1022.75 22.125C1021.25 19.625 1019.54 18.2917 1017.62 18.125C1015.62 18.2917 1013.83 19.625 1012.25 22.125C1010.67 24.625 1009.21 27.4167 1007.88 30.5C1006.62 33.5 1005.33 36.7083 1004 40.125L992.125 72.625C991.292 74.375 990.208 75.8333 988.875 77C987.625 78.0833 985.708 78.625 983.125 78.625C980.708 78.625 978.708 77.7917 977.125 76.125C975.625 74.4583 974.958 72.4583 975.125 70.125C975.208 69.0417 975.458 68.0417 975.875 67.125L989.625 31.625C993.458 22.2917 997.292 14.75 1001.12 9C1004.88 3.33333 1010.38 0.458333 1017.62 0.375C1024.79 0.458333 1030.25 3.33333 1034 9C1037.83 14.5833 1041.67 22.125 1045.5 31.625L1059.25 67.125C1059.67 68.0417 1059.92 69.0417 1060 70.125C1060.17 72.4583 1059.46 74.4583 1057.88 76.125C1056.38 77.7917 1054.42 78.625 1052 78.625C1049.25 78.625 1047.21 78.0833 1045.88 77C1044.62 75.8333 1043.58 74.375 1042.75 72.625L1040.38 66.125H1015.25C1012.92 66.125 1010.96 65.2917 1009.38 63.625C1007.71 62.0417 1006.88 60.0833 1006.88 57.75ZM1070.12 11.75C1070.12 9.41667 1070.92 7.45833 1072.5 5.875C1074.17 4.20833 1076.17 3.375 1078.5 3.375H1151.25C1153.58 3.375 1155.58 4.16667 1157.25 5.75C1158.83 7.41667 1159.62 9.41667 1159.62 11.75C1159.62 14.0833 1158.79 16.0833 1157.12 17.75C1155.54 19.3333 1153.58 20.125 1151.25 20.125H1123.38V70.75C1122.88 75.75 1120.12 78.4583 1115.12 78.875C1112.79 78.875 1110.75 78.125 1109 76.625C1107.33 75.0417 1106.5 73.0833 1106.5 70.75V20.125H1078.5C1076.17 20.125 1074.21 19.2917 1072.62 17.625C1070.96 16.0417 1070.12 14.0833 1070.12 11.75ZM1170.38 11.75C1170.38 9.41667 1171.17 7.45833 1172.75 5.875C1174.42 4.20833 1176.42 3.375 1178.75 3.375H1251.5C1253.83 3.375 1255.83 4.16667 1257.5 5.75C1259.08 7.41667 1259.88 9.41667 1259.88 11.75C1259.88 14.0833 1259.04 16.0833 1257.38 17.75C1255.79 19.3333 1253.83 20.125 1251.5 20.125H1223.62V70.75C1223.12 75.75 1220.38 78.4583 1215.38 78.875C1213.04 78.875 1211 78.125 1209.25 76.625C1207.58 75.0417 1206.75 73.0833 1206.75 70.75V20.125H1178.75C1176.42 20.125 1174.46 19.2917 1172.88 17.625C1171.21 16.0417 1170.38 14.0833 1170.38 11.75ZM1301.12 57.75C1301.12 55.4167 1301.92 53.4583 1303.5 51.875C1305.17 50.2083 1307.17 49.375 1309.5 49.375H1328.62L1325.38 40.125C1324.04 36.7083 1322.71 33.5 1321.38 30.5C1320.12 27.4167 1318.67 24.625 1317 22.125C1315.5 19.625 1313.79 18.2917 1311.88 18.125C1309.88 18.2917 1308.08 19.625 1306.5 22.125C1304.92 24.625 1303.46 27.4167 1302.12 30.5C1300.88 33.5 1299.58 36.7083 1298.25 40.125L1286.38 72.625C1285.54 74.375 1284.46 75.8333 1283.12 77C1281.88 78.0833 1279.96 78.625 1277.38 78.625C1274.96 78.625 1272.96 77.7917 1271.38 76.125C1269.88 74.4583 1269.21 72.4583 1269.38 70.125C1269.46 69.0417 1269.71 68.0417 1270.12 67.125L1283.88 31.625C1287.71 22.2917 1291.54 14.75 1295.38 9C1299.12 3.33333 1304.62 0.458333 1311.88 0.375C1319.04 0.458333 1324.5 3.33333 1328.25 9C1332.08 14.5833 1335.92 22.125 1339.75 31.625L1353.5 67.125C1353.92 68.0417 1354.17 69.0417 1354.25 70.125C1354.42 72.4583 1353.71 74.4583 1352.12 76.125C1350.62 77.7917 1348.67 78.625 1346.25 78.625C1343.5 78.625 1341.46 78.0833 1340.12 77C1338.88 75.8333 1337.83 74.375 1337 72.625L1334.62 66.125H1309.5C1307.17 66.125 1305.21 65.2917 1303.62 63.625C1301.96 62.0417 1301.12 60.0833 1301.12 57.75ZM1395.25 20.125C1392.08 20.2917 1389.42 21.5 1387.25 23.75C1385.17 26 1383.67 28.5833 1382.75 31.5C1381.83 34.3333 1381.38 37.25 1381.38 40.25C1381.38 43.25 1381.79 46.2083 1382.62 49.125C1383.54 52.0417 1385.08 54.625 1387.25 56.875C1389.42 59.0417 1392.08 60.2083 1395.25 60.375H1436.5C1441.75 60.875 1444.62 63.75 1445.12 69C1445.04 71.3333 1444.17 73.2917 1442.5 74.875C1440.83 76.375 1438.83 77.125 1436.5 77.125H1396.62H1390.88C1385.04 76.7917 1380.25 74.5833 1376.5 70.5C1372.75 66.3333 1370.04 61.625 1368.38 56.375C1366.79 51.125 1366 45.75 1366 40.25C1366 36.1667 1366.46 32.125 1367.38 28.125C1368.29 24.125 1369.71 20.3333 1371.62 16.75C1373.62 13.0833 1376.25 9.95833 1379.5 7.375C1382.83 4.79167 1386.62 3.45833 1390.88 3.375H1393.25H1436.5C1441.75 3.875 1444.62 6.75 1445.12 12C1445.12 14.3333 1444.25 16.2917 1442.5 17.875C1440.83 19.375 1438.83 20.125 1436.5 20.125H1395.25ZM1465.25 1.375C1467.5 1.45833 1469.42 2.29167 1471 3.875C1472.58 5.375 1473.42 7.25 1473.5 9.5V70.75C1473 75.75 1470.25 78.4583 1465.25 78.875C1462.92 78.875 1460.88 78.125 1459.12 76.625C1457.46 75.0417 1456.62 73.0833 1456.62 70.75V9.5C1456.71 7.16667 1457.58 5.25 1459.25 3.75C1460.92 2.16667 1462.92 1.375 1465.25 1.375ZM1486.62 23.375C1492.21 19.625 1499.75 15.8333 1509.25 12L1529.75 3.25C1530.67 2.83333 1531.67 2.58333 1532.75 2.5C1535.08 2.33333 1537.08 3.04167 1538.75 4.625C1540.42 6.125 1541.25 8.08333 1541.25 10.5C1541.25 13.25 1540.67 15.2917 1539.5 16.625C1538.42 17.875 1537 18.9167 1535.25 19.75L1517.75 26.375C1514.33 27.7083 1511.08 29.0417 1508 30.375C1505 31.625 1502.25 33.0833 1499.75 34.75C1497.25 36.25 1495.92 37.9583 1495.75 39.875C1495.92 41.7083 1497.25 43.4167 1499.75 45C1502.25 46.6667 1505 48.1667 1508 49.5C1511.08 50.75 1514.33 52.0417 1517.75 53.375L1537.25 60.5C1539 61.3333 1540.42 62.4167 1541.5 63.75C1542.67 65 1543.25 67 1543.25 69.75C1543.25 72.1667 1542.42 74.1667 1540.75 75.75C1539.08 77.25 1537.08 77.9167 1534.75 77.75C1533.67 77.6667 1532.67 77.4167 1531.75 77L1509.25 67.75C1499.75 63.9167 1492.17 60.125 1486.5 56.375C1480.92 52.5417 1478.08 47.0417 1478 39.875C1478.08 32.7083 1480.96 27.2083 1486.62 23.375Z" fill="url(#paint0_linear_1_64)"/>
<defs>
<linearGradient id="paint0_linear_1_64" x1="-188.75" y1="31.375" x2="1731.25" y2="31.375" gradientUnits="userSpaceOnUse">
<stop stop-color="#15FF00"/>
<stop offset="1" stop-color="#FF0404"/>
</linearGradient>
</defs>
</svg>
